<mxfile host="app.diagrams.net" modified="2023-12-05T23:38:33.924Z" agent="Mozilla/5.0 (Macintosh; Intel Mac OS X 10_15_7) AppleWebKit/605.1.15 (KHTML, like Gecko) Version/17.0 Safari/605.1.15" etag="UPqJOWkgOUX5dCIXsnQK" version="22.1.5" type="device">
  <diagram name="Страница — 1" id="asaf1hXHEqqsiIep-vq9">
    <mxGraphModel dx="1242" dy="855" grid="0" gridSize="10" guides="1" tooltips="1" connect="1" arrows="1" fold="1" page="1" pageScale="1" pageWidth="827" pageHeight="1169" background="#000000" math="0" shadow="0">
      <root>
        <mxCell id="0" />
        <mxCell id="1" parent="0" />
        <mxCell id="_qJg_hklkCSdlv5G42Ia-15" style="edgeStyle=orthogonalEdgeStyle;rounded=0;orthogonalLoop=1;jettySize=auto;html=1;exitX=1;exitY=0.5;exitDx=0;exitDy=0;entryX=0;entryY=0.5;entryDx=0;entryDy=0;" edge="1" parent="1" source="_qJg_hklkCSdlv5G42Ia-17" target="_qJg_hklkCSdlv5G42Ia-8">
          <mxGeometry relative="1" as="geometry">
            <Array as="points">
              <mxPoint x="427" y="201" />
            </Array>
          </mxGeometry>
        </mxCell>
        <mxCell id="_qJg_hklkCSdlv5G42Ia-1" value="&lt;font color=&quot;#ffffff&quot; style=&quot;font-size: 14px;&quot;&gt;Character&lt;/font&gt;" style="ellipse;whiteSpace=wrap;html=1;fillColor=#000000;strokeColor=#FFFFFF;strokeWidth=2;fontSize=14;" vertex="1" parent="1">
          <mxGeometry x="248" y="267" width="120" height="80" as="geometry" />
        </mxCell>
        <mxCell id="_qJg_hklkCSdlv5G42Ia-6" value="&lt;font color=&quot;#ffffff&quot;&gt;&lt;span style=&quot;caret-color: rgb(255, 255, 255);&quot;&gt;name: String&lt;br&gt;height: Int&lt;br&gt;mass: float&lt;br&gt;hairColor: String&lt;br&gt;skinColor: String&lt;br&gt;eyeColor: String&lt;br&gt;birthYear: String&lt;br&gt;gender: String&lt;br&gt;&lt;br&gt;&lt;/span&gt;&lt;/font&gt;" style="text;html=1;strokeColor=none;fillColor=none;align=left;verticalAlign=middle;whiteSpace=wrap;rounded=0;" vertex="1" parent="1">
          <mxGeometry x="148" y="243.5" width="100" height="127" as="geometry" />
        </mxCell>
        <mxCell id="_qJg_hklkCSdlv5G42Ia-8" value="&lt;font color=&quot;#ffffff&quot; style=&quot;font-size: 14px;&quot;&gt;Specie&lt;/font&gt;" style="ellipse;whiteSpace=wrap;html=1;fillColor=#000000;strokeColor=#FFFFFF;strokeWidth=2;fontSize=14;" vertex="1" parent="1">
          <mxGeometry x="499" y="114" width="120" height="80" as="geometry" />
        </mxCell>
        <mxCell id="_qJg_hklkCSdlv5G42Ia-16" value="" style="endArrow=classic;html=1;rounded=0;exitX=1;exitY=0.396;exitDx=0;exitDy=0;exitPerimeter=0;entryX=0.027;entryY=0.713;entryDx=0;entryDy=0;strokeColor=#7EA6E0;entryPerimeter=0;" edge="1" parent="1" source="_qJg_hklkCSdlv5G42Ia-1" target="_qJg_hklkCSdlv5G42Ia-8">
          <mxGeometry width="50" height="50" relative="1" as="geometry">
            <mxPoint x="391" y="311" as="sourcePoint" />
            <mxPoint x="441" y="261" as="targetPoint" />
          </mxGeometry>
        </mxCell>
        <mxCell id="_qJg_hklkCSdlv5G42Ia-17" value="isTypeOf" style="text;html=1;strokeColor=none;fillColor=none;align=center;verticalAlign=middle;whiteSpace=wrap;rounded=0;fontColor=#FFFFFF;rotation=-40;" vertex="1" parent="1">
          <mxGeometry x="397" y="211" width="60" height="30" as="geometry" />
        </mxCell>
        <mxCell id="_qJg_hklkCSdlv5G42Ia-19" value="&lt;font color=&quot;#ffffff&quot;&gt;&lt;span style=&quot;caret-color: rgb(255, 255, 255);&quot;&gt;&lt;div&gt;name: String&lt;/div&gt;&lt;div&gt;classification: String&lt;/div&gt;&lt;div&gt;designation: String&lt;/div&gt;&lt;div&gt;averageHeight: Int&lt;/div&gt;&lt;div&gt;skinColors: String&lt;/div&gt;&lt;div&gt;hairColors: String&lt;/div&gt;&lt;div&gt;eyeColors: String&lt;/div&gt;&lt;div&gt;averageLifespan: Int&lt;/div&gt;&lt;div&gt;language: String&lt;/div&gt;&lt;/span&gt;&lt;/font&gt;" style="text;html=1;strokeColor=none;fillColor=none;align=left;verticalAlign=middle;whiteSpace=wrap;rounded=0;" vertex="1" parent="1">
          <mxGeometry x="631" y="71" width="173" height="143" as="geometry" />
        </mxCell>
        <mxCell id="_qJg_hklkCSdlv5G42Ia-20" value="&lt;font color=&quot;#ffffff&quot;&gt;&lt;span style=&quot;caret-color: rgb(255, 255, 255);&quot;&gt;Planet&lt;/span&gt;&lt;/font&gt;" style="ellipse;whiteSpace=wrap;html=1;fillColor=#000000;strokeColor=#FFFFFF;strokeWidth=2;fontSize=14;" vertex="1" parent="1">
          <mxGeometry x="503" y="385" width="120" height="80" as="geometry" />
        </mxCell>
        <mxCell id="_qJg_hklkCSdlv5G42Ia-23" value="" style="endArrow=classic;html=1;rounded=0;exitX=1;exitY=1;exitDx=0;exitDy=0;entryX=0.146;entryY=0.091;entryDx=0;entryDy=0;strokeColor=#7EA6E0;entryPerimeter=0;" edge="1" parent="1" source="_qJg_hklkCSdlv5G42Ia-1" target="_qJg_hklkCSdlv5G42Ia-20">
          <mxGeometry width="50" height="50" relative="1" as="geometry">
            <mxPoint x="416" y="404" as="sourcePoint" />
            <mxPoint x="542" y="329" as="targetPoint" />
          </mxGeometry>
        </mxCell>
        <mxCell id="_qJg_hklkCSdlv5G42Ia-25" value="homeworld" style="text;html=1;strokeColor=none;fillColor=none;align=center;verticalAlign=middle;whiteSpace=wrap;rounded=0;fontColor=#FFFFFF;rotation=15;" vertex="1" parent="1">
          <mxGeometry x="410" y="338" width="60" height="30" as="geometry" />
        </mxCell>
        <mxCell id="_qJg_hklkCSdlv5G42Ia-27" value="&lt;div&gt;name: String&lt;/div&gt;&lt;div&gt;rotationPeriod: Int&lt;/div&gt;&lt;div&gt;orbitalPeriod: Int&lt;/div&gt;&lt;div&gt;diameter: Int&lt;/div&gt;&lt;div&gt;climate: String&lt;/div&gt;&lt;div&gt;gravity: Float(standard)&lt;/div&gt;&lt;div&gt;terrain: String&lt;/div&gt;&lt;div&gt;surfaceWater: Int&lt;/div&gt;&lt;div&gt;population: Int&lt;/div&gt;" style="text;html=1;strokeColor=none;fillColor=none;align=left;verticalAlign=middle;whiteSpace=wrap;rounded=0;fontColor=#FFFFFF;" vertex="1" parent="1">
          <mxGeometry x="628" y="362" width="170" height="150" as="geometry" />
        </mxCell>
        <mxCell id="_qJg_hklkCSdlv5G42Ia-28" value="" style="endArrow=classic;html=1;rounded=0;exitX=0.5;exitY=1;exitDx=0;exitDy=0;entryX=0.5;entryY=0;entryDx=0;entryDy=0;strokeColor=#7EA6E0;" edge="1" parent="1" source="_qJg_hklkCSdlv5G42Ia-8" target="_qJg_hklkCSdlv5G42Ia-20">
          <mxGeometry width="50" height="50" relative="1" as="geometry">
            <mxPoint x="378" y="309" as="sourcePoint" />
            <mxPoint x="504" y="234" as="targetPoint" />
          </mxGeometry>
        </mxCell>
        <mxCell id="_qJg_hklkCSdlv5G42Ia-29" value="homeworld" style="text;html=1;strokeColor=none;fillColor=none;align=center;verticalAlign=middle;whiteSpace=wrap;rounded=0;fontColor=#FFFFFF;rotation=0;" vertex="1" parent="1">
          <mxGeometry x="565" y="267" width="60" height="30" as="geometry" />
        </mxCell>
        <mxCell id="_qJg_hklkCSdlv5G42Ia-30" value="&lt;font color=&quot;#ffffff&quot; style=&quot;font-size: 14px;&quot;&gt;Starship&lt;/font&gt;" style="ellipse;whiteSpace=wrap;html=1;fillColor=#000000;strokeColor=#FFFFFF;strokeWidth=2;fontSize=14;" vertex="1" parent="1">
          <mxGeometry x="148" y="497" width="120" height="80" as="geometry" />
        </mxCell>
        <mxCell id="_qJg_hklkCSdlv5G42Ia-31" value="" style="endArrow=classic;html=1;rounded=0;exitX=0;exitY=1;exitDx=0;exitDy=0;entryX=0.5;entryY=0;entryDx=0;entryDy=0;strokeColor=#7EA6E0;" edge="1" parent="1" source="_qJg_hklkCSdlv5G42Ia-1" target="_qJg_hklkCSdlv5G42Ia-30">
          <mxGeometry width="50" height="50" relative="1" as="geometry">
            <mxPoint x="321" y="374" as="sourcePoint" />
            <mxPoint x="480" y="509" as="targetPoint" />
          </mxGeometry>
        </mxCell>
        <mxCell id="_qJg_hklkCSdlv5G42Ia-32" value="pilotOf" style="text;html=1;strokeColor=none;fillColor=none;align=center;verticalAlign=middle;whiteSpace=wrap;rounded=0;fontColor=#FFFFFF;rotation=0;" vertex="1" parent="1">
          <mxGeometry x="178" y="398" width="60" height="30" as="geometry" />
        </mxCell>
        <mxCell id="_qJg_hklkCSdlv5G42Ia-33" value="&lt;font color=&quot;#ffffff&quot;&gt;name: String&lt;br&gt;model: String&lt;br&gt;manufacturer: String&lt;br&gt;&lt;div&gt;costInCredits: Int&lt;/div&gt;&lt;div&gt;length&lt;span style=&quot;white-space: pre;&quot;&gt;: Int&lt;/span&gt;&lt;/div&gt;&lt;div&gt;maxAtmospheringSpeed&lt;span style=&quot;white-space: pre;&quot;&gt;: Int&lt;/span&gt;&lt;/div&gt;&lt;div&gt;Crew&lt;span style=&quot;white-space: pre;&quot;&gt;: Int&lt;/span&gt;&lt;/div&gt;&lt;div&gt;Passengers&lt;span style=&quot;white-space: pre;&quot;&gt;: Int&lt;/span&gt;&lt;/div&gt;&lt;div&gt;CargoCapacity: Int&lt;span style=&quot;white-space: pre;&quot;&gt;&amp;nbsp;&lt;/span&gt;&lt;/div&gt;&lt;div&gt;Consumables&lt;span style=&quot;white-space: pre;&quot;&gt;: Date(d/w/m/y)&lt;/span&gt;&lt;/div&gt;&lt;div&gt;HyperdriveRating: float&lt;span style=&quot;white-space: pre;&quot;&gt;&amp;nbsp;&lt;/span&gt;&lt;/div&gt;&lt;div&gt;MGLT&lt;span style=&quot;white-space: pre;&quot;&gt;: Int&lt;/span&gt;&lt;/div&gt;&lt;div&gt;starshipClass: String&lt;/div&gt;&lt;div&gt;&lt;br&gt;&lt;/div&gt;&lt;span style=&quot;caret-color: rgb(255, 255, 255);&quot;&gt;&lt;br&gt;&lt;/span&gt;&lt;/font&gt;" style="text;html=1;strokeColor=none;fillColor=none;align=left;verticalAlign=middle;whiteSpace=wrap;rounded=0;" vertex="1" parent="1">
          <mxGeometry x="56" y="557" width="179" height="216" as="geometry" />
        </mxCell>
        <mxCell id="_qJg_hklkCSdlv5G42Ia-34" value="&lt;font color=&quot;#ffffff&quot; style=&quot;font-size: 14px;&quot;&gt;Vehicle&lt;/font&gt;" style="ellipse;whiteSpace=wrap;html=1;fillColor=#000000;strokeColor=#FFFFFF;strokeWidth=2;fontSize=14;" vertex="1" parent="1">
          <mxGeometry x="337" y="497" width="120" height="80" as="geometry" />
        </mxCell>
        <mxCell id="_qJg_hklkCSdlv5G42Ia-35" value="" style="endArrow=classic;html=1;rounded=0;exitX=0.5;exitY=1;exitDx=0;exitDy=0;entryX=0.5;entryY=0;entryDx=0;entryDy=0;strokeColor=#7EA6E0;" edge="1" parent="1" source="_qJg_hklkCSdlv5G42Ia-1" target="_qJg_hklkCSdlv5G42Ia-34">
          <mxGeometry width="50" height="50" relative="1" as="geometry">
            <mxPoint x="276" y="345" as="sourcePoint" />
            <mxPoint x="218" y="482" as="targetPoint" />
          </mxGeometry>
        </mxCell>
        <mxCell id="_qJg_hklkCSdlv5G42Ia-36" value="pilotOf" style="text;html=1;strokeColor=none;fillColor=none;align=center;verticalAlign=middle;whiteSpace=wrap;rounded=0;fontColor=#FFFFFF;rotation=0;" vertex="1" parent="1">
          <mxGeometry x="358" y="391" width="60" height="30" as="geometry" />
        </mxCell>
        <mxCell id="_qJg_hklkCSdlv5G42Ia-37" value="&lt;font color=&quot;#ffffff&quot;&gt;name: String&lt;br&gt;model: String&lt;br&gt;manufacturer: String&lt;br&gt;&lt;div&gt;costInCredits: Int&lt;/div&gt;&lt;div&gt;length&lt;span style=&quot;white-space: pre;&quot;&gt;: Int&lt;/span&gt;&lt;/div&gt;&lt;div&gt;maxAtmospheringSpeed&lt;span style=&quot;white-space: pre;&quot;&gt;: Int&lt;/span&gt;&lt;/div&gt;&lt;div&gt;Crew&lt;span style=&quot;white-space: pre;&quot;&gt;: Int&lt;/span&gt;&lt;/div&gt;&lt;div&gt;Passengers&lt;span style=&quot;white-space: pre;&quot;&gt;: Int&lt;/span&gt;&lt;/div&gt;&lt;div&gt;CargoCapacity: Int&lt;span style=&quot;white-space: pre;&quot;&gt;&amp;nbsp;&lt;/span&gt;&lt;/div&gt;&lt;div&gt;Consumables&lt;span style=&quot;white-space: pre;&quot;&gt;: Date(d/w/m/y)&lt;/span&gt;&lt;/div&gt;&lt;div&gt;starshipClass: String&lt;/div&gt;&lt;div&gt;&lt;br&gt;&lt;/div&gt;&lt;span style=&quot;caret-color: rgb(255, 255, 255);&quot;&gt;&lt;br&gt;&lt;/span&gt;&lt;/font&gt;" style="text;html=1;strokeColor=none;fillColor=none;align=left;verticalAlign=middle;whiteSpace=wrap;rounded=0;" vertex="1" parent="1">
          <mxGeometry x="457" y="563" width="179" height="182" as="geometry" />
        </mxCell>
      </root>
    </mxGraphModel>
  </diagram>
</mxfile>
